<svg width="1080" height="1080" viewBox="0 0 1080 1080" xmlns="http://www.w3.org/2000/svg" font-family="Arial, Helvetica, sans-serif">
  <rect width="1080" height="1080" fill="#1e293b"/>
  <rect x="0" y="0" width="1080" height="8" fill="#f97316"/>
  <rect x="72" y="72" width="420" height="44" rx="22" fill="#f97316"/>
  <text x="282" y="100" text-anchor="middle" font-size="22" font-weight="700" fill="#fff7ed">Los más buscados este mes</text>
  <text x="72" y="210" font-size="52" font-weight="900" fill="#FFFFFF">Top 5 oficios en Argentina</text>
  <rect x="72" y="248" width="936" height="2" fill="#334155"/>
  <rect x="72" y="278" width="936" height="120" rx="12" fill="#0f172a"/>
  <text x="120" y="350" font-size="56">💧</text>
  <text x="196" y="336" font-size="28" font-weight="700" fill="#FFFFFF">#1  Plomero</text>
  <text x="196" y="374" font-size="22" fill="#64748b">Pérdidas y destapaciones</text>
  <rect x="72" y="414" width="936" height="120" rx="12" fill="#0f172a"/>
  <text x="120" y="486" font-size="56">⚡</text>
  <text x="196" y="472" font-size="28" font-weight="700" fill="#FFFFFF">#2  Electricista</text>
  <text x="196" y="510" font-size="22" fill="#64748b">Instalaciones y tableros</text>
  <rect x="72" y="550" width="936" height="120" rx="12" fill="#0f172a"/>
  <text x="120" y="622" font-size="56">🔥</text>
  <text x="196" y="608" font-size="28" font-weight="700" fill="#FFFFFF">#3  Gasista</text>
  <text x="196" y="646" font-size="22" fill="#64748b">Calefones y estufas</text>
  <rect x="72" y="686" width="936" height="120" rx="12" fill="#0f172a"/>
  <text x="120" y="758" font-size="56">🧱</text>
  <text x="196" y="744" font-size="28" font-weight="700" fill="#FFFFFF">#4  Albañil</text>
  <text x="196" y="782" font-size="22" fill="#64748b">Reformas y reparaciones</text>
  <rect x="72" y="822" width="936" height="120" rx="12" fill="#0f172a"/>
  <text x="120" y="894" font-size="56">🔑</text>
  <text x="196" y="880" font-size="28" font-weight="700" fill="#FFFFFF">#5  Cerrajero</text>
  <text x="196" y="918" font-size="22" fill="#64748b">Urgencias 24 horas</text>
  <text x="72" y="988" font-size="30" fill="#94a3b8">Encontralos todos en trabajoscerca.com.ar</text>
  <rect x="0" y="1032" width="1080" height="48" fill="#0f172a"/>
  <text x="72" y="1064" font-size="26" font-weight="700" fill="#f97316">trabajoscerca.com.ar</text>
  <text x="1008" y="1064" text-anchor="end" font-size="22" fill="#64748b">#OficiosArgentina  #Hogar</text>
</svg>
