<svg width="1080" height="1080" viewBox="0 0 1080 1080" xmlns="http://www.w3.org/2000/svg" font-family="Arial, Helvetica, sans-serif">
  <rect width="1080" height="1080" fill="#7f1d1d"/>
  <rect x="0" y="0" width="1080" height="8" fill="#ef4444"/>
  <rect x="72" y="72" width="300" height="44" rx="22" fill="#FCEBEB"/>
  <text x="222" y="100" text-anchor="middle" font-size="22" font-weight="700" fill="#7f1d1d">Seguridad en el hogar</text>
  <text x="72" y="270" font-size="160">🔥</text>
  <text x="72" y="420" font-size="74" font-weight="900" fill="#FFFFFF">No arriesgues</text>
  <text x="72" y="510" font-size="74" font-weight="900" fill="#fca5a5">con el gas.</text>
  <rect x="72" y="550" width="936" height="2" fill="#991b1b"/>
  <text x="72" y="612" font-size="36" fill="#fecaca">Siempre contratá un gasista</text>
  <text x="72" y="658" font-size="36" fill="#fecaca">matriculado y habilitado.</text>
  <circle cx="100" cy="742" r="18" fill="#ef4444"/>
  <text x="100" y="750" text-anchor="middle" font-size="22" font-weight="900" fill="#fff">✓</text>
  <text x="134" y="750" font-size="32" fill="#FECACA">Con matrícula verificada</text>
  <circle cx="100" cy="810" r="18" fill="#ef4444"/>
  <text x="100" y="818" text-anchor="middle" font-size="22" font-weight="900" fill="#fff">✓</text>
  <text x="134" y="818" font-size="32" fill="#FECACA">Disponible en tu ciudad</text>
  <circle cx="100" cy="878" r="18" fill="#ef4444"/>
  <text x="100" y="886" text-anchor="middle" font-size="22" font-weight="900" fill="#fff">✓</text>
  <text x="134" y="886" font-size="32" fill="#FECACA">Contacto directo por WhatsApp</text>
  <rect x="72" y="926" width="410" height="72" rx="36" fill="#ef4444"/>
  <text x="277" y="970" text-anchor="middle" font-size="28" font-weight="800" fill="#fff">Buscar gasista ahora</text>
  <rect x="0" y="1032" width="1080" height="48" fill="#450a0a"/>
  <text x="72" y="1064" font-size="26" font-weight="700" fill="#f87171">trabajoscerca.com.ar</text>
  <text x="1008" y="1064" text-anchor="end" font-size="22" fill="#fca5a5">#GasistaMatriculado  #Seguridad</text>
</svg>
